<svg width="32" height="32" viewBox="0 0 32 32" fill="none" xmlns="http://www.w3.org/2000/svg">
<mask id="mask0_784_16153" style="mask-type:alpha" maskUnits="userSpaceOnUse" x="0" y="0" width="32" height="32">
<rect width="32" height="32" fill="#D9D9D9"/>
</mask>
<g mask="url(#mask0_784_16153)">
<path d="M15.888 10.447C17.336 10.447 18.6474 11.0335 19.5975 11.9826C20.5474 12.9325 21.133 14.2428 21.133 15.692C21.133 17.141 20.5466 18.4514 19.5975 19.4015C18.6476 20.3514 17.3363 20.937 15.888 20.937C14.439 20.937 13.1287 20.3506 12.1786 19.4015C11.2286 18.4516 10.643 17.1413 10.643 15.692C10.643 14.243 11.2295 12.9326 12.1787 11.9824C13.1286 11.0326 14.4388 10.447 15.888 10.447Z" fill="#2E3132" stroke="#2E3132" stroke-linecap="round" stroke-linejoin="round"/>
<path d="M21.819 9.761L22.973 8.607L24.127 7.453M7.453 24.127L8.608 22.972L9.762 21.818M24.315 15.79H25.948H27.58M4 15.79H5.632H7.265M21.819 21.818L22.973 22.972L24.127 24.127M7.453 7.453L8.608 8.607L9.762 9.761M15.824 7.265V5.632V4M15.824 27.58V25.947V24.315" stroke="#2E3132" stroke-linecap="round" stroke-linejoin="round"/>
</g>
</svg>
